<?xml version="1.0" encoding="UTF-8" standalone="no"?><!DOCTYPE svg PUBLIC "-//W3C//DTD SVG 1.1//EN" "http://www.w3.org/Graphics/SVG/1.1/DTD/svg11.dtd"><svg width="100%" height="100%" viewBox="0 0 512 512" version="1.1" xmlns="http://www.w3.org/2000/svg" xmlns:xlink="http://www.w3.org/1999/xlink" xml:space="preserve" xmlns:serif="http://www.serif.com/" style="fill-rule:evenodd;clip-rule:evenodd;stroke-linejoin:round;stroke-miterlimit:1.41421;"><g><circle cx="254.5" cy="254.5" r="191.5" style="fill:#daa162;"/><path d="M130.061,218.582c-1.139,0 -2.061,-0.922 -2.061,-2.061l0,-37.095c0,-1.139 0.922,-2.06 2.061,-2.06c1.139,0 2.061,0.921 2.061,2.06l0,37.095c0,1.139 -0.922,2.061 -2.061,2.061Z" style="fill:#fff;fill-rule:nonzero;stroke:#fff;stroke-width:3px;"/><path d="M138.305,214.46c-1.14,0 -2.061,-0.922 -2.061,-2.061l0,-32.973c0,-1.139 0.921,-2.06 2.061,-2.06c1.139,0 2.06,0.921 2.06,2.06l0,32.973c0,1.139 -0.921,2.061 -2.06,2.061Z" style="fill:#fff;fill-rule:nonzero;stroke:#fff;stroke-width:3px;"/><path d="M146.548,214.46c-1.14,0 -2.061,-0.922 -2.061,-2.061l0,-32.973c0,-1.139 0.921,-2.06 2.061,-2.06c1.139,0 2.061,0.921 2.061,2.06l0,32.973c0,1.139 -0.922,2.061 -2.061,2.061Z" style="fill:#fff;fill-rule:nonzero;stroke:#fff;stroke-width:3px;"/><path d="M154.791,218.582c-1.139,0 -2.061,-0.922 -2.061,-2.061l0,-37.095c0,-1.139 0.922,-2.06 2.061,-2.06c1.139,0 2.061,0.921 2.061,2.06l0,37.095c0,1.139 -0.922,2.061 -2.061,2.061Z" style="fill:#fff;fill-rule:nonzero;stroke:#fff;stroke-width:3px;"/><path d="M142.426,230.946c-7.954,0 -14.426,-6.472 -14.426,-14.425c0,-1.139 0.922,-2.061 2.061,-2.061c1.139,0 2.061,0.922 2.061,2.061c0,5.681 4.622,10.303 10.304,10.303c5.681,0 10.304,-4.623 10.304,-10.303c0,-1.139 0.922,-2.061 2.061,-2.061c1.139,0 2.061,0.922 2.061,2.061c0,7.953 -6.473,14.425 -14.426,14.425Z" style="fill:#fff;fill-rule:nonzero;stroke:#fff;stroke-width:3px;"/><path d="M138.305,329.863c-1.14,0 -2.061,-0.917 -2.061,-2.06l0,-91.399c0,-1.139 0.921,-2.06 2.061,-2.06c1.139,0 2.06,0.921 2.06,2.06l0,91.399c0,1.143 -0.921,2.06 -2.06,2.06Z" style="fill:#fff;fill-rule:nonzero;stroke:#fff;stroke-width:3px;"/><path d="M373.237,329.863c-1.139,0 -2.062,-0.917 -2.062,-2.06l0,-148.377c0,-1.139 0.923,-2.06 2.062,-2.06c1.139,0 2.06,0.921 2.06,2.06l0,148.377c0.001,1.143 -0.921,2.06 -2.06,2.06Z" style="fill:#fff;fill-rule:nonzero;stroke:#fff;stroke-width:3px;"/><path d="M146.548,329.863c-1.14,0 -2.061,-0.917 -2.061,-2.06l0,-91.399c0,-1.139 0.921,-2.06 2.061,-2.06c1.139,0 2.061,0.921 2.061,2.06l0,91.399c0,1.143 -0.922,2.06 -2.061,2.06Z" style="fill:#fff;fill-rule:nonzero;stroke:#fff;stroke-width:3px;"/><path d="M142.426,333.985c-3.409,0 -6.182,-2.769 -6.182,-6.182c0,-1.136 0.921,-2.061 2.061,-2.061c1.139,0 2.06,0.925 2.06,2.061c0,1.139 0.924,2.06 2.061,2.06c1.137,0 2.061,-0.921 2.061,-2.06c0,-1.136 0.922,-2.061 2.061,-2.061c1.139,0 2.061,0.925 2.061,2.061c0,3.413 -2.774,6.182 -6.183,6.182Z" style="fill:#fff;fill-rule:nonzero;stroke:#fff;stroke-width:3px;"/><path d="M377.358,333.985c-3.408,0 -6.182,-2.769 -6.182,-6.182c0,-1.136 0.922,-2.061 2.061,-2.061c1.14,0 2.061,0.925 2.061,2.061c0,1.139 0.926,2.06 2.06,2.06c1.135,0 2.061,-0.921 2.061,-2.06c0,-1.136 0.922,-2.061 2.061,-2.061c1.14,0 2.061,0.925 2.061,2.061c0,3.413 -2.774,6.182 -6.183,6.182Z" style="fill:#fff;fill-rule:nonzero;stroke:#fff;stroke-width:3px;"/><path d="M381.48,329.872c-1.139,0 -2.061,-0.926 -2.061,-2.061l0,-70.074c0,-1.139 0.922,-2.061 2.061,-2.061c1.14,0 2.061,0.922 2.061,2.061l0,70.073c0,1.136 -0.921,2.062 -2.061,2.062Z" style="fill:#fff;fill-rule:nonzero;stroke:#fff;stroke-width:3px;"/><path d="M389.724,202.095c-1.14,0 -2.062,-0.922 -2.062,-2.061c0,-14.635 -14.321,-18.455 -14.932,-18.609c-1.099,-0.282 -1.768,-1.401 -1.49,-2.502c0.278,-1.109 1.397,-1.775 2.496,-1.496c0.181,0.045 18.048,4.717 18.048,22.607c0,1.139 -0.921,2.061 -2.06,2.061Z" style="fill:#fff;fill-rule:nonzero;stroke:#fff;stroke-width:3px;"/><path d="M389.724,251.555c-1.14,0 -2.062,-0.922 -2.062,-2.061l0,-49.46c0,-1.139 0.922,-2.06 2.062,-2.06c1.139,0 2.06,0.921 2.06,2.06l0,49.46c0,1.139 -0.921,2.061 -2.06,2.061Z" style="fill:#fff;fill-rule:nonzero;stroke:#fff;stroke-width:3px;"/><path d="M389.724,251.555l-8.244,0c-1.139,0 -2.061,-0.922 -2.061,-2.061c0,-1.139 0.922,-2.061 2.061,-2.061l8.244,0c1.139,0 2.06,0.922 2.06,2.061c0,1.139 -0.921,2.061 -2.06,2.061Z" style="fill:#fff;fill-rule:nonzero;stroke:#fff;stroke-width:3px;"/><path d="M259.013,346.35c-49.998,0 -90.675,-40.677 -90.675,-90.674c0,-49.999 40.677,-90.676 90.675,-90.676c49.999,0 90.676,40.677 90.676,90.676c0,49.997 -40.677,90.674 -90.676,90.674Zm0,-177.228c-47.726,0 -86.553,38.828 -86.553,86.554c0,47.727 38.827,86.552 86.553,86.552c47.729,0 86.555,-38.825 86.555,-86.552c0,-47.727 -38.826,-86.554 -86.555,-86.554Z" style="fill:#fff;fill-rule:nonzero;stroke:#fff;stroke-width:3px;"/><path d="M259.013,325.742c-38.636,0 -70.067,-31.427 -70.067,-70.066c0,-38.636 31.432,-70.067 70.067,-70.067c38.637,0 70.068,31.431 70.068,70.067c0,38.639 -31.431,70.066 -70.068,70.066Zm0,-136.012c-36.362,0 -65.945,29.584 -65.945,65.946c0,36.36 29.584,65.944 65.945,65.944c36.363,0 65.947,-29.584 65.947,-65.944c0,-36.362 -29.584,-65.946 -65.947,-65.946Z" style="fill:#fff;fill-rule:nonzero;stroke:#fff;stroke-width:3px;"/></g></svg>