<?xml version="1.0" encoding="UTF-8" standalone="no"?><!DOCTYPE svg PUBLIC "-//W3C//DTD SVG 1.1//EN" "http://www.w3.org/Graphics/SVG/1.1/DTD/svg11.dtd"><svg width="100%" height="100%" viewBox="0 0 100 100" version="1.1" xmlns="http://www.w3.org/2000/svg" xmlns:xlink="http://www.w3.org/1999/xlink" xml:space="preserve" xmlns:serif="http://www.serif.com/" style="fill-rule:evenodd;clip-rule:evenodd;stroke-linejoin:round;stroke-miterlimit:1.41421;"><circle cx="50" cy="49" r="36" style="fill:#daa162;"/><path d="M76.239,43.676l-14.342,-14.343c-0.86,-0.86 -2.003,-1.333 -3.219,-1.333c-1.216,0 -2.358,0.473 -3.217,1.333l-5.176,5.175l-5.175,-5.175c-1.775,-1.775 -4.662,-1.775 -6.437,0l-14.343,14.343c-1.775,1.775 -1.775,4.662 0.008,6.444l7.499,7.215c-0.055,1.388 0.493,2.725 1.548,3.709c0.857,0.801 1.937,1.248 2.991,1.26c0.077,1.171 0.614,2.673 1.475,3.464c0.777,0.768 1.889,1.207 3.019,1.219c0.06,1.143 0.621,2.436 1.436,3.184c0.788,0.724 2.147,1.466 3.453,1.566c0.451,1.889 1.282,2.917 2.725,3.399c0.254,0.085 0.791,0.233 1.46,0.233c0.818,0 1.832,-0.221 2.766,-1.048c0.092,-0.094 0.212,-0.26 0.347,-0.471c0.251,0.092 0.573,0.17 0.967,0.17c0.679,0 1.558,-0.229 2.581,-1.004c1.198,-0.907 1.53,-2.045 1.508,-2.985c1.305,0.481 2.738,0.213 3.74,-0.798c1.258,-1.269 1.165,-2.799 0.873,-3.903c1.248,0.136 2.615,-0.419 3.298,-1.094c0.815,-0.802 1.294,-2.187 1.04,-3.407c1.1,0.082 2.612,-0.094 3.701,-1.38c0.964,-1.139 1.021,-2.506 0.197,-4.061l5.277,-5.276c1.775,-1.775 1.775,-4.661 0,-6.436Zm-42.072,16.53c-0.839,-0.783 -1.262,-1.853 -1.181,-2.951l3.675,-6.295c0.296,-0.287 0.883,-0.583 1.568,-0.573c0.699,0.006 1.327,0.314 1.868,0.917c1.392,1.551 0.514,3.23 0.459,3.331l-3.939,6.511c-0.836,0.063 -1.736,-0.274 -2.45,-0.94Zm4.476,4.732c-0.729,-0.669 -1.186,-2.188 -1.118,-3.078l3.914,-6.468c0.531,-0.18 2.27,-0.655 3.368,0.432c1.233,1.219 0.807,2.634 0.721,2.875l-4.394,7.13c-0.922,0.063 -1.853,-0.26 -2.491,-0.891Zm3.386,1.624l4.425,-7.177c0.358,-0.171 1.634,-0.604 3.096,0.953c1.125,1.199 0.604,2.844 0.511,3.108l-4.164,7.144c-0.897,-0.06 -2.053,-0.564 -2.816,-1.265c-0.684,-0.627 -1.148,-1.866 -1.052,-2.763Zm6.82,7.487c-1.094,-0.366 -1.668,-1.161 -2.017,-2.784l4.168,-7.152c0.998,-0.559 2.34,0.191 2.836,0.797c0.659,0.807 0.828,1.994 0.86,2.264c-0.203,1.494 -2.317,5.85 -2.774,6.315c-1.209,1.07 -2.658,0.699 -3.073,0.56Zm7.065,-1.948c-1.052,0.797 -1.827,0.829 -2.272,0.732c0.714,-1.345 1.571,-3.263 1.979,-4.605c0.274,0.244 0.645,0.57 1.192,1.025c0.154,0.405 0.531,1.765 -0.899,2.848Zm13.976,-13.393c-1.033,1.221 -2.691,1.04 -3.461,0.87l-9.359,-9.294c-0.225,-0.223 -0.587,-0.222 -0.812,0.003c-0.223,0.225 -0.222,0.587 0.003,0.811l9.425,9.36c0.575,0.846 0.228,2.279 -0.467,2.962c-0.625,0.617 -2.203,1.111 -3.1,0.526c-0.012,-0.008 -0.027,-0.011 -0.039,-0.018l-9.367,-9.599c-0.222,-0.227 -0.585,-0.23 -0.811,-0.01c-0.228,0.221 -0.232,0.585 -0.011,0.811l9.452,9.686c0.489,1.252 0.753,2.543 -0.305,3.61c-0.908,0.916 -2.301,0.93 -3.386,0.034c-0.626,-0.518 -1.02,-0.868 -1.31,-1.126c-0.21,-0.187 -0.37,-0.328 -0.528,-0.454c-0.077,-0.534 -0.329,-1.765 -1.089,-2.696c-0.677,-0.827 -2.046,-1.572 -3.351,-1.39c0.105,-0.895 0.014,-2.173 -0.988,-3.24c-1.288,-1.373 -2.614,-1.613 -3.58,-1.467c0.059,-0.832 -0.112,-2.012 -1.191,-3.079c-1.142,-1.13 -2.651,-1.117 -3.669,-0.931c0.19,-1.001 0.078,-2.343 -0.995,-3.539c-0.952,-1.061 -2,-1.291 -2.712,-1.297c-0.01,-0.001 -0.02,-0.001 -0.03,-0.001c-1.12,0 -2.006,0.527 -2.428,0.981c-0.029,0.031 -0.053,0.065 -0.074,0.101l-3.419,5.855l-7.147,-6.876c-1.327,-1.327 -1.327,-3.486 0,-4.814l14.343,-14.343c1.327,-1.327 3.487,-1.327 4.814,0l5.175,5.175l-7.731,7.731c-0.066,0.06 -0.685,0.632 -1.33,1.366c-0.206,0.235 -0.423,0.754 0.441,1.589c1.781,1.722 6.969,3.86 11.649,-0.527c1.17,-1.089 2.936,-2.843 3.728,-3.635l13.563,13.789c0.012,0.023 0.027,0.047 0.042,0.073c0.496,0.843 0.95,1.944 0.055,3.003Zm0.368,-4.238l-13.616,-13.843c-0.108,-0.109 -0.254,-0.171 -0.407,-0.171c-0.148,0.017 -0.3,0.06 -0.408,0.169c-0.026,0.026 -2.584,2.595 -4.108,4.016c-2.631,2.466 -5.262,2.493 -7.005,2.084c-1.783,-0.419 -2.937,-1.34 -3.26,-1.753c0.558,-0.614 1.065,-1.079 1.071,-1.084c0.004,-0.003 0.005,-0.008 0.008,-0.011c0.004,-0.003 0.008,-0.004 0.012,-0.008l13.727,-13.726c0.642,-0.643 1.497,-0.996 2.406,-0.996c0.909,0 1.765,0.353 2.408,0.996l14.342,14.343c1.327,1.328 1.327,3.487 0,4.814l-5.17,5.17Z" style="fill:#fff;fill-rule:nonzero;"/></svg>